<?xml version="1.0" encoding="UTF-8"?><svg id="a" xmlns="http://www.w3.org/2000/svg" viewBox="0 0 1576.19 88.95"><defs><style>.b{stroke:#e3cb9e;stroke-miterlimit:10;stroke-width:5px;}.b,.c{fill:#e3cb9e;}</style></defs><g><line class="b" x1="770.47" y1="45.67" x2="132.92" y2="45.67"/><g><g><g><path class="c" d="M20.11,45.67s-8.86-2.68-10.09-10.9C9.1,28.65,1.23,23.37,.25,23.37c0,0,20.51-6.84,29.95,5.21,9.44,12.04,10.42,17.09,17.25,17.09"/><path class="c" d="M20.11,45.67s-9.17,2.8-10.09,10.9c-.7,6.14-8.79,11.39-9.77,11.39,0,0,20.51,6.84,29.95-5.21,9.44-12.04,10.42-17.09,17.25-17.09"/></g><g><path class="c" d="M115.04,45.67s1.84,6.51-12.8,6.84c0,0,1.54,11.21-15.17,11.2-11.36,0-20.2-13.26-41.47-18.04"/><path class="c" d="M115.04,45.67s1.84-6.51-12.8-6.84c0,0,1.54-11.21-15.17-11.2-11.36,0-20.2,13.26-41.47,18.04"/></g></g><circle class="c" cx="241.33" cy="45.35" r="9.6"/><circle class="c" cx="205.33" cy="45.35" r="9.6"/><circle class="c" cx="169.33" cy="45.35" r="9.6"/><path class="c" d="M144.5,37.8v15.74c0,2.56-2.31,4.48-4.83,4.04-6.21-1.1-16.99-4.11-23.81-12.19,0,0,9.03-9.93,24.12-11.68,2.42-.28,4.52,1.65,4.52,4.08Z"/></g></g><g><line class="b" x1="809.73" y1="45.55" x2="1443.27" y2="45.55"/><g><g><g><path class="c" d="M1556.09,45.55s8.86,2.68,10.09,10.9c.91,6.12,8.79,11.39,9.77,11.39,0,0-20.51,6.84-29.95-5.21-9.44-12.04-10.42-17.09-17.25-17.09"/><path class="c" d="M1556.09,45.55s9.17-2.8,10.09-10.9c.7-6.14,8.79-11.39,9.77-11.39,0,0-20.51-6.84-29.95,5.21-9.44,12.04-10.42,17.09-17.25,17.09"/></g><g><path class="c" d="M1461.16,45.55s-1.84-6.51,12.8-6.84c0,0-1.54-11.21,15.17-11.2,11.36,0,20.2,13.26,41.47,18.04"/><path class="c" d="M1461.16,45.55s-1.84,6.51,12.8,6.84c0,0-1.54,11.21,15.17,11.2,11.36,0,20.2-13.26,41.47-18.04"/></g></g><circle class="c" cx="1334.87" cy="45.87" r="9.6"/><circle class="c" cx="1370.87" cy="45.87" r="9.6"/><circle class="c" cx="1406.87" cy="45.87" r="9.6"/><path class="c" d="M1431.7,53.42v-15.74c0-2.56,2.31-4.48,4.83-4.04,6.21,1.1,16.99,4.11,23.81,12.19,0,0-9.03,9.93-24.12,11.68-2.42,.28-4.52-1.65-4.52-4.08Z"/></g></g><circle class="c" cx="788.76" cy="15.72" r="9.6"/><circle class="c" cx="788.76" cy="73.23" r="9.6"/><g><g><path class="c" d="M813.86,45.61s8.86,2.68,10.09,10.9c.91,6.12,8.79,11.39,9.77,11.39,0,0-20.51,6.84-29.95-5.21-9.44-12.04-10.42-17.09-17.25-17.09"/><path class="c" d="M813.86,45.61s9.17-2.8,10.09-10.9c.7-6.14,8.79-11.39,9.77-11.39,0,0-20.51-6.84-29.95,5.21-9.44,12.04-10.42,17.09-17.25,17.09"/></g><g><path class="c" d="M761.84,45.61s-8.86-2.68-10.09-10.9c-.91-6.12-8.79-11.39-9.77-11.39,0,0,20.51-6.84,29.95,5.21,9.44,12.04,10.42,17.09,17.25,17.09"/><path class="c" d="M761.84,45.61s-9.17,2.8-10.09,10.9c-.7,6.14-8.79,11.39-9.77,11.39,0,0,20.51,6.84,29.95-5.21,9.44-12.04,10.42-17.09,17.25-17.09"/></g></g></svg>