<?xml version="1.0" encoding="UTF-8"?><svg id="a" xmlns="http://www.w3.org/2000/svg" viewBox="0 0 792 62.02"><defs><style>.b{stroke:#e3cb9e;stroke-miterlimit:10;stroke-width:5px;}.b,.c{fill:#e3cb9e;}</style></defs><circle class="c" cx="394.62" cy="31.01" r="9.6"/><g><g><line class="b" x1="19.96" y1="31.01" x2="322.03" y2="31.01"/><circle class="c" cx="44.81" cy="31.01" r="6.4"/><path class="c" d="M28.64,23.42v15.74c0,2.56-2.31,4.48-4.83,4.04-6.21-1.1-16.99-4.11-23.81-12.19,0,0,9.03-9.93,24.12-11.68,2.42-.28,4.52,1.65,4.52,4.08Z"/><g><path class="c" d="M360.44,31.01s-8.86-2.68-10.09-10.9c-.91-6.12-8.79-11.39-9.77-11.39,0,0,20.51-6.84,29.95,5.21s10.42,17.09,17.25,17.09"/><path class="c" d="M360.44,31.01s-9.17,2.8-10.09,10.9c-.7,6.14-8.79,11.39-9.77,11.39,0,0,20.51,6.84,29.95-5.21,9.44-12.04,10.42-17.09,17.25-17.09"/></g><g><path class="c" d="M291,31.01s-1.84-6.51,12.8-6.84c0,0-1.54-11.21,15.17-11.2,11.36,0,20.2,13.26,41.47,18.04"/><path class="c" d="M291,31.01s-1.84,6.51,12.8,6.84c0,0-1.54,11.21,15.17,11.2,11.36,0,20.2-13.26,41.47-18.04"/></g></g><circle class="c" cx="47.11" cy="30.69" r="9.6"/></g><g><g><line class="b" x1="772.04" y1="31.01" x2="469.97" y2="31.01"/><circle class="c" cx="747.19" cy="31.01" r="6.4"/><path class="c" d="M763.36,38.6v-15.74c0-2.56,2.31-4.48,4.83-4.04,6.21,1.1,16.99,4.11,23.81,12.19,0,0-9.03,9.93-24.12,11.68-2.42,.28-4.52-1.65-4.52-4.08Z"/><g><path class="c" d="M431.56,31.01s8.74,2.63,10.09,10.9c1,6.1,8.79,11.39,9.77,11.39,0,0-20.51,6.84-29.95-5.21-9.44-12.04-10.42-17.09-17.25-17.09"/><path class="c" d="M431.56,31.01s8.59-2.58,10.09-10.9c1.29-7.2,8.79-11.39,9.77-11.39,0,0-20.51-6.84-29.95,5.21-9.44,12.04-10.42,17.09-17.25,17.09"/></g><g><path class="c" d="M501,31.01s1.84,6.51-12.8,6.84c0,0,1.54,11.21-15.17,11.2-11.36,0-20.2-13.26-41.47-18.04"/><path class="c" d="M501,31.01s1.84-6.51-12.8-6.84c0,0,1.54-11.21-15.17-11.2-11.36,0-20.2,13.26-41.47,18.04"/></g></g><circle class="c" cx="743.52" cy="30.69" r="9.6"/></g></svg>