<?xml version="1.0" encoding="UTF-8"?><svg id="a" xmlns="http://www.w3.org/2000/svg" viewBox="0 0 1576.19 69.59"><defs><style>.b{stroke:#e3cb9e;stroke-miterlimit:10;stroke-width:5px;}.b,.c{fill:#e3cb9e;}</style></defs><g><g><line class="b" x1="21.07" y1="34.8" x2="106.81" y2="34.8"/><circle class="c" cx="45.92" cy="34.8" r="6.4"/><path class="c" d="M29.75,27.21v15.74c0,2.56-2.31,4.48-4.83,4.04-6.21-1.1-16.99-4.11-23.81-12.19,0,0,9.03-9.93,24.12-11.68,2.42-.28,4.52,1.65,4.52,4.08Z"/><g><path class="c" d="M114.96,34.8s8.86,2.68,10.09,10.9c.91,6.12,8.79,11.39,9.77,11.39,0,0-20.51,6.84-29.95-5.21-9.44-12.04-10.42-17.09-17.25-17.09"/><path class="c" d="M114.96,34.8s9.17-2.8,10.09-10.9c.7-6.14,8.79-11.39,9.77-11.39,0,0-20.51-6.84-29.95,5.21-9.44,12.04-10.42,17.09-17.25,17.09"/></g><g><path class="c" d="M184.4,34.8s1.84,6.51-12.8,6.84c0,0,1.54,11.21-15.17,11.2-11.36,0-20.2-13.26-41.47-18.04"/><path class="c" d="M184.4,34.8s1.84-6.51-12.8-6.84c0,0,1.54-11.21-15.17-11.2-11.36,0-20.2,13.26-41.47,18.04"/></g></g><circle class="c" cx="48.22" cy="34.48" r="9.6"/></g><g><g><line class="b" x1="1555.12" y1="34.8" x2="1464.98" y2="34.8"/><circle class="c" cx="1530.27" cy="34.8" r="6.4"/><path class="c" d="M1546.44,42.39v-15.74c0-2.56,2.31-4.48,4.83-4.04,6.21,1.1,16.99,4.11,23.81,12.19,0,0-9.03,9.93-24.12,11.68-2.42,.28-4.52-1.65-4.52-4.08Z"/><g><path class="c" d="M1461.24,34.8s-8.86-2.68-10.09-10.9c-.91-6.12-8.79-11.39-9.77-11.39,0,0,20.51-6.84,29.95,5.21,9.44,12.04,10.42,17.09,17.25,17.09"/><path class="c" d="M1461.24,34.8s-9.17,2.8-10.09,10.9c-.7,6.14-8.79,11.39-9.77,11.39,0,0,20.51,6.84,29.95-5.21,9.44-12.04,10.42-17.09,17.25-17.09"/></g><g><path class="c" d="M1391.8,34.8s-1.84-6.51,12.8-6.84c0,0-1.54-11.21,15.17-11.2,11.36,0,20.2,13.26,41.47,18.04"/><path class="c" d="M1391.8,34.8s-1.84,6.51,12.8,6.84c0,0-1.54,11.21,15.17,11.2,11.36,0,20.2-13.26,41.47-18.04"/></g></g><circle class="c" cx="1527.98" cy="35.11" r="9.6"/></g><line class="b" x1="751.88" y1="34.8" x2="170.38" y2="34.8"/><line class="b" x1="1398.87" y1="34.8" x2="824.3" y2="34.8"/><circle class="c" cx="788.74" cy="35.11" r="9.6"/><circle class="c" cx="751.88" cy="35.11" r="9.6"/><circle class="c" cx="824.3" cy="35.11" r="9.6"/></svg>