<?xml version="1.0" encoding="UTF-8" standalone="no"?>
<svg
   version="1.1"
   x="0px"
   y="0px"
   viewBox="0 0 89.110001 95.305"
   xml:space="preserve"
   id="svg5"
   width="89.110001"
   height="95.305"
   xmlns="http://www.w3.org/2000/svg"
   xmlns:svg="http://www.w3.org/2000/svg"><defs
     id="defs5" /><path
     fill="#FFFFFF"
     d="m 10.51,40.6 h 0.4 c 1.4,0 2.5,-1.1 2.5,-2.5 V 21.5 c 0,-1.4 -1.1,-2.5 -2.5,-2.5 h -0.4 c -1.4,0 -2.5,1.1 -2.5,2.5 v 16.6 c 0,1.4 1.1,2.5 2.5,2.5 z"
     id="path1" /><path
     fill="#FFFFFF"
     d="m 15.91,21.3 v 17.1 l 65.7,18.8 V 2.4999996 Z m 61.4,-3.4 -57.1,8.2 v -2.7 l 57.1,-13.2 z"
     id="path2" /><path
     fill="#FFFFFF"
     d="m 39.41,54.5 -2.7,-0.6 c -1.7,-0.4 -3.2,-1.5 -4.1,-3 -0.9,-1.5 -1.2,-3.3 -0.8,-5 l 0.2,-0.7 -5.2,-1.5 -0.2,1 c -1.5,6.5 2.5,13 9,14.5 l 2.7,0.6 c 0.9,0.2 1.9,0.3 2.8,0.3 5.4,0 10.3,-3.6 11.7,-9 l -5.2,-1.5 c -1,3.5 -4.6,5.7 -8.2,4.9 z"
     id="path3" /><path
     fill="#FFFFFF"
     d="m 86.81,59.5 h -0.4 c -1.2,0 -2.3,-1 -2.3,-2.3 V 2.2999996 c 0,-1.2 1,-2.29999998146973 2.3,-2.29999998146973 h 0.4 c 1.2,0 2.3,1.00000000146973 2.3,2.29999998146973 V 57.2 c -0.1,1.3 -1.1,2.3 -2.3,2.3 z"
     id="path4" /></svg>
