<?xml version="1.0" encoding="UTF-8" standalone="no"?>
<!-- Created with Inkscape (http://www.inkscape.org/) -->

<svg
   width="668.23474"
   height="360.91553"
   viewBox="0 0 668.23474 360.91553"
   version="1.1"
   id="svg1"
   xml:space="preserve"
   xmlns:inkscape="http://www.inkscape.org/namespaces/inkscape"
   xmlns:sodipodi="http://sodipodi.sourceforge.net/DTD/sodipodi-0.dtd"
   xmlns="http://www.w3.org/2000/svg"
   xmlns:svg="http://www.w3.org/2000/svg"><sodipodi:namedview
     id="namedview1"
     pagecolor="#ffffff"
     bordercolor="#999999"
     borderopacity="1"
     inkscape:showpageshadow="2"
     inkscape:pageopacity="0"
     inkscape:pagecheckerboard="0"
     inkscape:deskcolor="#d1d1d1"
     inkscape:document-units="px" /><defs
     id="defs1" /><g
     inkscape:label="Layer 1"
     inkscape:groupmode="layer"
     id="layer1"
     transform="translate(-25.882635,-179.54224)"><path
       style="fill:#e2cb9d;fill-opacity:1;stroke-width:1.08854"
       d="M 320.03117,540.04552 C 305.0162,539.44183 278.21726,536.8713 258.91541,534.18336 184.61495,523.83639 120.36893,502.44168 78.069264,473.9594 53.656376,457.52109 35.916434,436.94103 28.814381,416.81893 c -2.831027,-8.02109 -3.730152,-17.96062 -2.175543,-24.04994 3.40258,-13.32772 16.370971,-23.91104 36.050513,-29.42032 5.551969,-1.55426 11.692633,-2.74842 13.001063,-2.52827 1.04288,0.17548 1.04222,0.17935 -0.12226,0.71848 -0.64394,0.29813 -3.278244,1.30186 -5.854004,2.2305 -11.124142,4.01061 -20.775897,9.86677 -24.591903,14.92103 -1.004555,1.33053 -2.38882,3.64748 -3.076143,5.14879 -1.163676,2.54181 -1.235332,3.07258 -1.041199,7.71235 0.18425,4.40358 0.382987,5.34739 1.709964,8.12059 12.047239,25.17708 64.650281,53.31086 122.770711,65.66166 27.88365,5.92537 59.595,10.29951 100.45463,13.85628 9.01517,0.78476 20.28996,1.84479 25.05512,2.35561 20.92963,2.24363 24.11742,2.40848 51.28104,2.65185 16.0302,0.14362 30.81017,0.0384 36.99727,-0.26321 81.46941,-3.9724 135.05358,-9.74608 177.20802,-19.09411 41.66384,-9.23922 79.24092,-25.84693 103.06239,-45.54983 8.1128,-6.71014 13.61724,-13.34662 17.00854,-20.50649 1.42784,-3.01455 1.50919,-3.4766 1.50919,-8.57198 0,-4.90628 -0.11275,-5.61495 -1.26665,-7.96144 -3.6342,-7.39028 -12.08858,-13.22987 -27.06671,-18.69548 -2.96212,-1.0809 -5.58589,-2.16371 -5.83058,-2.40625 -1.37166,-1.35956 9.1464,0.77772 17.3737,3.53035 10.95049,3.66373 18.10031,7.85937 23.98217,14.07314 9.22603,9.74668 11.20853,21.65622 6.13979,36.88383 -4.56516,13.71475 -13.21488,26.7032 -26.27738,39.45821 -13.81329,13.48815 -31.2566,25.29963 -53.55577,36.26449 -55.17984,27.13286 -131.6698,44.60473 -213.22834,48.70571 -10.61982,0.53399 -64.87455,0.52086 -78.30084,-0.0189 z m 6.08816,-68.81976 c -25.44589,-1.27353 -39.15577,-2.91746 -52.6278,-6.31052 -11.94958,-3.00962 -19.18774,-6.50392 -29.09404,-14.04545 -15.91913,-12.11905 -25.20886,-23.36406 -33.28105,-40.28595 -6.95269,-14.57504 -8.44437,-21.33177 -24.09025,-109.11855 -13.22214,-74.18757 -19.54339,-107.95869 -21.99517,-117.50865 -0.52342,-2.03879 -0.82846,-3.83011 -0.67787,-3.98072 0.1506,-0.1506 83.82247,-0.32755 185.93748,-0.39323 163.16233,-0.10494 185.69573,-0.0358 185.92836,0.57042 0.14559,0.37939 -1.1151,6.33396 -2.80152,13.23236 -11.1539,45.62547 -18.4828,83.41719 -27.45344,141.5647 -5.20011,33.707 -6.51288,40.78904 -9.57547,51.65727 -5.63394,19.99319 -13.39821,35.03127 -25.3242,49.04876 -4.42323,5.19894 -13.67382,13.61662 -18.26448,16.61997 -14.99514,9.81024 -37.23106,15.79063 -68.84303,18.51548 -7.59894,0.65501 -47.44787,0.9541 -57.83752,0.43411 z M 436.28296,438.0203 c 16.68527,-9.75032 27.87346,-29.18811 33.60245,-58.37919 2.53228,-12.90282 4.003,-27.05491 5.39876,-51.9499 0.66842,-11.92202 2.53147,-28.44331 6.12609,-54.32511 3.92209,-28.23963 8.37408,-46.11582 15.8926,-63.81386 1.23225,-2.90061 2.11697,-5.39733 1.96605,-5.54825 -0.15092,-0.15092 -3.92439,0.0577 -8.38548,0.46366 -18.38343,1.67277 -22.86105,1.89841 -37.96648,1.9132 -8.6932,0.009 -15.8058,0.0834 -15.8058,0.1664 10e-6,0.0829 0.51709,2.40118 1.14906,5.15151 5.07587,22.08985 11.12501,68.56 15.3429,117.86573 0.38624,4.51512 0.60108,15.30672 0.60133,30.20664 3.7e-4,21.52549 -0.0756,23.73292 -1.06277,30.89484 -3.0591,22.193 -8.27854,35.47849 -17.93015,45.63913 -1.85403,1.95181 -3.07738,3.54874 -2.71859,3.54874 0.3588,0 2.06431,-0.82509 3.79003,-1.83354 z m 71.72533,-43.94473 c 2.20896,-7.42142 5.16575,-21.07176 6.82198,-31.49452 0.55256,-3.47728 1.17978,-6.75095 1.39381,-7.27482 0.32765,-0.80195 1.60082,-1.19604 8.0555,-2.49342 16.75219,-3.36714 24.91673,-5.8675 33.09718,-10.13588 6.29552,-3.28487 11.3267,-6.93525 17.06267,-12.37984 20.83653,-19.77813 32.76034,-47.52235 29.19493,-67.93056 -0.85809,-4.91173 -3.60376,-12.24904 -6.15567,-16.44992 -2.06248,-3.39521 -4.64062,-5.6337 -8.86602,-7.69799 -4.40416,-2.15163 -8.07801,-3.02061 -12.77041,-3.02061 -7.67796,0 -13.41402,1.42652 -18.94232,4.71082 -6.99645,4.15652 -11.26167,9.54913 -18.86916,23.85671 -4.2024,7.90355 -7.69898,13.68944 -8.61506,14.25561 -0.30943,0.19124 -0.51384,-0.0664 -0.51384,-0.6475 0,-2.07045 8.03924,-42.10746 11.28965,-56.22472 l 0.99762,-4.33291 4.74481,-2.22978 c 8.78408,-4.12803 16.71299,-6.08247 24.67585,-6.08247 34.87415,0 60.54655,31.81905 56.67781,70.248 -2.85151,28.32464 -21.24005,55.3736 -52.72456,77.55615 -6.67533,4.70314 -13.18486,8.68503 -23.65015,14.46687 -17.85463,9.86427 -29.12007,16.23897 -35.61433,20.15288 -3.62072,2.1821 -6.79711,3.96746 -7.05867,3.96746 -0.26155,0 -0.36578,-0.36881 -0.23162,-0.81956 z"
       id="path11"
       sodipodi:nodetypes="ssssssssssssssssscsssssssssssssssssssssssssssssssssssssccssssssssssssssssssssssscssssssss" /></g></svg>
